<mxfile host="app.diagrams.net" modified="2024-05-31T07:57:05.521Z" agent="Mozilla/5.0 (X11; Linux x86_64) AppleWebKit/537.36 (KHTML, like Gecko) Chrome/125.0.0.0 Safari/537.36 Edg/125.0.0.0" version="24.4.10" etag="p7sYxWAzTvmmDtktvkQe" type="github">
  <diagram name="第 1 页" id="p2fKThRs_LdsLyzxwsgk">
    <mxGraphModel>
      <root>
        <mxCell id="0" />
        <mxCell id="1" parent="0" />
      </root>
    </mxGraphModel>
  </diagram>
</mxfile>
